<?xml version="1.0" encoding="utf-8"?>
<!-- Generator: Adobe Illustrator 18.1.1, SVG Export Plug-In . SVG Version: 6.00 Build 0)  -->
<!DOCTYPE svg PUBLIC "-//W3C//DTD SVG 1.1//EN" "http://www.w3.org/Graphics/SVG/1.1/DTD/svg11.dtd">
<svg version="1.1" id="Layer_1" xmlns="http://www.w3.org/2000/svg" xmlns:xlink="http://www.w3.org/1999/xlink" x="0px" y="0px"
	 width="256px" height="256px" viewBox="-507 153 256 256" style="enable-background:new -507 153 256 256;" xml:space="preserve">
<style type="text/css">
	.st0{fill:#512200;stroke:#512200;stroke-miterlimit:10;}
</style>
<g>
	<path class="st0" d="M-294.4,261.9c2.8,10.6,4.3,21.9,4.3,33.6c0,1.4,0,2.7-0.1,4.1l13.8,5.4l11.4-9.4l8.7,10.3l-17.1,14.1
		l-17.8-7.2c-2,15.7-6.8,30.3-13.7,43.1l2.5-3.3l13.4,7.6l12.7-7.7l7.1,11.4l-19,11.5l-21-12.2c-16.4,25.4-41.8,41.8-70.3,41.8
		c-28.4,0-53.8-16.3-70.1-41.6l-20.6,12.1l-19-11.5l7.1-11.4l12.7,7.7l13.4-7.6l1,1.3c-6.3-12.2-10.7-26-12.6-40.8l-17.3,7
		l-17.1-14.1l8.7-10.3l11.4,9.4l13.2-5.1c0-1.4-0.1-2.9-0.1-4.3c0-11.7,1.5-23,4.3-33.6l-22.3-0.8l-9.7-19.8l12.2-5.8l6.5,13.2
		l15.4,0.7l0.3,4.4c9.2-27.4,27.3-49.2,49.8-60.1c0.4-8.4,7.4-15.1,16-15.1h37.4c8.9,0,16.1,7.1,16.1,15.9c0,0.4-0.1,0.7-0.1,1.1
		c21.2,11.7,38,33.1,46.6,59.7l0.4-6l15.4-0.7l6.5-13.2l12.2,5.8l-9.7,19.8L-294.4,261.9z"/>
	<polygon class="st0" points="-334.2,164.6 -336,169.3 -338.7,170.5 -344.4,172 -349.2,174.9 -355.9,178.6 -355.9,174.9 
		-348.3,169.6 -342.8,167.9 -337.9,164.6 -335.1,159 -329.7,157.2 -331.2,162.3 	"/>
	<polygon class="st0" points="-410.8,172 -416.5,170.5 -419.2,169.3 -421,164.6 -424,162.3 -425.5,157.2 -420,159 -417.2,164.6 
		-412.4,167.9 -406.8,169.6 -399.3,174.9 -399.3,178.6 -406,174.9 	"/>
</g>
</svg>
